<?xml version="1.0" encoding="UTF-8" standalone="no"?>
<!-- Created with Inkscape (http://www.inkscape.org/) -->

<svg
   width="202.61566mm"
   height="58.902mm"
   viewBox="0 0 202.61566 58.902"
   version="1.1"
   id="svg1"
   xml:space="preserve"
   xmlns="http://www.w3.org/2000/svg"
   xmlns:svg="http://www.w3.org/2000/svg">
   <style type="text/css" media="screen">  
    <![CDATA[  
    @font-face {
      font-family: 'Oxanium';
      src: url('./Oxanium-ExtraBold.ttf') format('truetype');
    }
    tspan {  
        font-family: 'Oxanium';
    }
    ]]>  
</style> 
   <defs
     id="defs1" /><g
     id="layer1"
     transform="translate(-1.6759172,-1.4175954)"><text
       xml:space="preserve"
       style="font-style:normal;font-variant:normal;font-weight:800;font-stretch:normal;font-size:17.2971px;line-height:0.9;font-family:Oxanium;fill:#00ffff;stroke:#00ffff;stroke-width:0.265417"
       x="35.871689"
       y="31.570526"
       id="text1"
       transform="scale(1.0948237,0.91338906)"><tspan
         style="stroke-width:0.265417"
         x="35.871689"
         y="31.570526"
         id="tspan2">Fábián Zoltán</tspan><tspan
         style="stroke-width:0.265417"
         x="35.871689"
         y="47.137917"
         id="tspan3">Egyéni Vállalkozó</tspan></text><g
       style="opacity:1;fill:none;fill-rule:nonzero;stroke:none;stroke-width:0;stroke-linecap:butt;stroke-linejoin:miter;stroke-miterlimit:10;stroke-dasharray:none"
       transform="matrix(0.82157226,-0.32011168,0.41307791,1.0601717,-36.044954,-240.0298)"
       id="g1">
	<path
   d="m -42.210637,240.15152 h -3.989772 v -2.30242 c 0.939144,-0.48149 1.53834,-1.20257 1.53834,-2.00778 v -9.42638 c 0,-1.44603 -1.928485,-2.62263 -4.298584,-2.62263 -2.370099,0 -4.298584,1.1766 -4.298584,2.62263 v 9.42638 c 0,0.80521 0.599196,1.52629 1.53834,2.00778 v 2.3028 h -3.989772 c -2.082256,0 -3.775638,1.03355 -3.775638,2.30358 v 4.63275 c 0,4.65717 3.804231,8.96775 10.176176,11.53146 0.02097,0.009 0.04511,0.0124 0.06735,0.019 0.02097,0.007 0.04003,0.0128 0.06227,0.0178 0.07117,0.0159 0.144875,0.0267 0.219854,0.0267 0.07498,0 0.148687,-0.0109 0.219854,-0.0271 0.02224,-0.005 0.0413,-0.0112 0.06227,-0.0178 0.02224,-0.007 0.04639,-0.0105 0.06735,-0.0194 6.371953,-2.56371 10.176184,-6.8743 10.176184,-11.53147 v -4.63235 c 0,-1.27042 -1.694017,-2.30358 -3.775638,-2.30358 z m -9.77777,-13.73658 c 0,-1.01881 1.358518,-1.84728 3.027754,-1.84728 1.669236,0 3.027754,0.82847 3.027754,1.84728 v 9.42638 c 0,0.6261 -0.515957,1.17854 -1.298789,1.51272 -0.06163,0.0264 -0.128354,0.0473 -0.192531,0.0702 -0.08324,0.0302 -0.167114,0.0593 -0.254801,0.0845 -0.09023,0.0252 -0.182364,0.0473 -0.275771,0.0671 -0.06036,0.0132 -0.121999,0.024 -0.18427,0.0349 -0.11501,0.0194 -0.23002,0.0376 -0.347572,0.0485 -0.02033,0.002 -0.04194,0.002 -0.06291,0.004 -0.271958,0.0221 -0.547093,0.0221 -0.81905,0 -0.02161,-0.002 -0.04448,-0.002 -0.06608,-0.004 -0.116916,-0.0109 -0.231926,-0.0291 -0.346301,-0.0485 -0.06227,-0.0109 -0.124541,-0.0221 -0.185541,-0.0353 -0.09341,-0.0198 -0.185542,-0.0415 -0.27577,-0.0671 -0.08642,-0.0248 -0.169021,-0.0535 -0.250989,-0.0833 -0.06608,-0.0237 -0.134073,-0.045 -0.197615,-0.0721 -0.782196,-0.33418 -1.297518,-0.88623 -1.297518,-1.51194 v -9.42599 z m 2.251912,12.00366 c 0.01716,0.002 0.03368,0.003 0.05083,0.005 0.236375,0.0248 0.477197,0.0403 0.725009,0.0403 0.246541,0 0.486728,-0.0155 0.721832,-0.0399 0.01906,-0.002 0.03749,-0.003 0.05655,-0.005 0.226843,-0.0256 0.446697,-0.0624 0.659561,-0.10894 0.01652,-0.004 0.03495,-0.005 0.05147,-0.008 v 2.23806 1.8124 c 0,0.50087 -0.668457,0.90871 -1.489414,0.90871 -0.820956,0 -1.489413,-0.40784 -1.489413,-0.90871 v -1.8124 -2.23806 c 0.01652,0.004 0.03495,0.005 0.05147,0.008 0.214135,0.0469 0.434624,0.0837 0.662103,0.10933 z m 10.030665,8.66924 c 0,4.14854 -3.204399,8.00128 -8.619408,10.45605 v -7.11504 c 0,-0.21439 -0.284666,-0.38768 -0.635415,-0.38768 -0.350749,0 -0.635415,0.17329 -0.635415,0.38768 v 7.11465 c -5.415009,-2.45477 -8.619408,-6.30751 -8.619408,-10.45566 v -4.63274 c 0,-0.84243 1.124049,-1.52823 2.504807,-1.52823 h 3.989772 v 1.42472 c 0,0.92887 1.238425,1.68407 2.760244,1.68407 1.522455,0 2.760244,-0.7552 2.760244,-1.68407 v -1.42472 h 3.989772 c 1.381393,0 2.504807,0.6858 2.504807,1.52823 z"
   style="opacity:1;fill:#00ffff;fill-rule:nonzero;stroke:none;stroke-width:0.496323;stroke-linecap:butt;stroke-linejoin:miter;stroke-miterlimit:10;stroke-dasharray:none"
   stroke-linecap="round"
   id="path1" />
</g></g></svg>
