<?xml version="1.0" encoding="UTF-8" standalone="no"?>
<!-- Created with Inkscape (http://www.inkscape.org/) -->

<svg
   width="202.61566mm"
   height="58.902mm"
   viewBox="0 0 202.61566 58.902"
   version="1.1"
   id="svg1"
   inkscape:version="1.3.2 (091e20e, 2023-11-25, custom)"
   sodipodi:docname="logo.svg"
   xml:space="preserve"
   xmlns:inkscape="http://www.inkscape.org/namespaces/inkscape"
   xmlns:sodipodi="http://sodipodi.sourceforge.net/DTD/sodipodi-0.dtd"
   xmlns="http://www.w3.org/2000/svg"
   xmlns:svg="http://www.w3.org/2000/svg"><sodipodi:namedview
     id="namedview1"
     pagecolor="#505050"
     bordercolor="#ffffff"
     borderopacity="1"
     inkscape:showpageshadow="0"
     inkscape:pageopacity="0"
     inkscape:pagecheckerboard="1"
     inkscape:deskcolor="#505050"
     inkscape:document-units="mm"
     inkscape:zoom="1.4142136"
     inkscape:cx="308.29856"
     inkscape:cy="78.135299"
     inkscape:window-width="1920"
     inkscape:window-height="1009"
     inkscape:window-x="1912"
     inkscape:window-y="-8"
     inkscape:window-maximized="1"
     inkscape:current-layer="text1" /><defs
     id="defs1" /><g
     inkscape:label="Réteg 1"
     inkscape:groupmode="layer"
     id="layer1"
     transform="translate(-1.6759172,-1.4175954)"><g
       id="text1"
       style="font-weight:800;font-size:17.2971px;line-height:0.9;font-family:Oxanium;fill:#00ffff;stroke:#00ffff;stroke-width:0.265417"
       transform="scale(1.0948237,0.91338906)"
       aria-label="Fábián Zoltán&#10;Egyéni Vállalkozó"><path
         d="M 37.341942,31.570526 V 19.635527 h 8.025855 v 1.919978 h -5.915608 v 3.390232 h 5.396695 v 1.919978 h -5.396695 v 4.704811 z m 11.744731,0 q -2.732942,0 -2.732942,-2.698347 0,-2.698348 2.732942,-2.698348 h 2.663754 v -1.124312 q 0,-0.795666 -0.795667,-0.795666 h -3.666985 v -1.089718 l 0.899449,-0.674586 h 2.871319 q 2.715644,0 2.715644,2.732941 v 6.348036 z m -0.709181,-2.559971 q 0,0.795667 0.795667,0.795667 h 2.577268 v -2.058355 h -2.577268 q -0.795667,0 -0.795667,0.77837 z m 0.588101,-8.319905 2.335109,-2.646456 1.124311,1.089717 -2.490782,2.490783 z m 7.333986,10.879876 V 18.770672 h 2.023761 v 3.718877 h 2.957804 q 2.715644,0 2.715644,2.732941 v 3.615094 q 0,2.732942 -2.715644,2.732942 z m 2.023761,-1.764304 h 2.854021 q 0.795667,0 0.795667,-0.795667 v -3.961036 q 0,-0.795666 -0.795667,-0.795666 H 58.32334 Z m 8.077744,-8.89071 v -2.058354 h 2.127544 v 2.058354 z m 0.05189,10.655014 v -9.080977 h 2.02376 v 9.080977 z m 6.866951,0 q -2.732942,0 -2.732942,-2.698347 0,-2.698348 2.732942,-2.698348 h 2.663753 v -1.124312 q 0,-0.795666 -0.795667,-0.795666 h -3.666985 v -1.089718 l 0.899449,-0.674586 h 2.871319 q 2.715645,0 2.715645,2.732941 v 6.348036 z m -0.709181,-2.559971 q 0,0.795667 0.795666,0.795667 h 2.577268 v -2.058355 h -2.577268 q -0.795666,0 -0.795666,0.77837 z m 0.588101,-8.319905 2.335108,-2.646456 1.124312,1.089717 -2.490782,2.490783 z m 7.333985,10.879876 v -9.080977 h 4.981565 q 2.715645,0 2.715645,2.732941 v 6.348036 h -2.023761 v -6.521007 q 0,-0.795666 -0.795666,-0.795666 h -2.854022 v 7.316673 z m 13.854966,0 v -1.643224 l 6.071282,-8.371797 h -5.898311 v -1.919978 h 8.562061 v 1.643225 l -6.071279,8.371796 h 6.244249 v 1.919978 z M 105.23307,28.837584 V 25.22249 q 0,-2.732941 2.73294,-2.732941 h 2.4216 q 2.71564,0 2.71564,2.732941 v 3.615094 q 0,2.732942 -2.71564,2.732942 h -2.4216 q -2.73294,0 -2.73294,-2.732942 z m 2.02376,0.172971 q 0,0.795667 0.79567,0.795667 h 2.23132 q 0.79567,0 0.79567,-0.795667 v -3.961036 q 0,-0.795666 -0.79567,-0.795666 h -2.23132 q -0.79567,0 -0.79567,0.795666 z m 8.23343,-0.449724 v -9.790159 h 2.02376 v 9.997724 q 0,1.124311 1.14161,1.210797 V 31.7262 q -3.16537,0 -3.16537,-3.165369 z m 5.05075,0.276753 v -9.202057 h 2.02376 v 2.854022 h 3.09619 v 1.764304 h -3.09619 v 4.756702 q 0,0.795667 0.79567,0.795667 h 2.47349 v 1.089717 l -0.91675,0.674587 h -1.64322 q -2.73295,0 -2.73295,-2.732942 z m 9.46152,2.732942 q -2.73294,0 -2.73294,-2.698347 0,-2.698348 2.73294,-2.698348 h 2.66376 v -1.124312 q 0,-0.795666 -0.79567,-0.795666 h -3.66699 v -1.089718 l 0.89945,-0.674586 h 2.87132 q 2.71565,0 2.71565,2.732941 v 6.348036 z m -0.70918,-2.559971 q 0,0.795667 0.79567,0.795667 h 2.57727 v -2.058355 h -2.57727 q -0.79567,0 -0.79567,0.77837 z m 0.5881,-8.319905 2.33511,-2.646456 1.12431,1.089717 -2.49078,2.490783 z m 7.33398,10.879876 v -9.080977 h 4.98157 q 2.71564,0 2.71564,2.732941 v 6.348036 h -2.02376 v -6.521007 q 0,-0.795666 -0.79566,-0.795666 h -2.85402 v 7.316673 z"
         id="path3" /><path
         d="M 37.341942,47.137916 V 35.202917 h 8.025855 v 1.919978 h -5.915608 v 2.871318 h 5.396695 v 1.919979 h -5.396695 v 3.303746 h 5.915608 v 1.919978 z m 9.99774,-2.732942 V 40.78988 q 0,-2.732942 2.732942,-2.732942 h 4.981565 v 9.807456 q 0,2.732942 -2.732942,2.732942 h -3.303746 l -0.916746,-0.674587 v -1.089717 h 4.134007 q 0.795666,0 0.795666,-0.795667 v -0.899449 h -2.957804 q -2.732942,0 -2.732942,-2.732942 z m 2.023761,0.172971 q 0,0.795667 0.795667,0.795667 h 2.871318 v -5.55237 H 50.15911 q -0.795667,0 -0.795667,0.795667 z m 7.264795,-6.209659 0.207565,-0.311348 h 1.747007 l 2.283217,7.316674 h 0.259457 l 2.283217,-7.316674 h 1.747007 l 0.207565,0.311348 -3.961036,12.22905 H 59.65523 l -0.207565,-0.311348 1.089717,-3.148072 h -1.055123 z m 10.222574,6.036688 V 40.78988 q 0,-2.732942 2.732941,-2.732942 h 2.248623 q 2.715645,0 2.715645,2.732942 v 2.559971 h -5.673449 v 1.228094 q 0,0.795667 0.795667,0.795667 h 4.53184 v 1.089717 l -0.916746,0.674587 h -3.70158 q -2.732941,0 -2.732941,-2.732942 z m 2.02376,-2.629159 h 3.649689 v -1.158906 q 0,-0.795667 -0.795667,-0.795667 h -2.058355 q -0.795667,0 -0.795667,0.795667 z m 0.501616,-5.517775 2.335109,-2.646456 1.124311,1.089717 -2.490782,2.490782 z m 7.62803,10.879876 v -9.080978 h 4.981565 q 2.715645,0 2.715645,2.732942 v 6.348036 h -2.023761 v -6.521007 q 0,-0.795667 -0.795666,-0.795667 h -2.854022 v 7.316674 z M 87.174903,36.482902 v -2.058355 h 2.127544 v 2.058355 z m 0.05189,10.655014 v -9.080978 h 2.02376 v 9.080978 z m 7.800992,-11.519869 0.276754,-0.41513 h 1.833493 l 2.957806,10.015021 h 0.32864 l 2.95781,-10.015021 h 1.85079 l 0.25945,0.41513 -3.52861,11.519869 h -3.424821 z m 13.647393,11.519869 q -2.73294,0 -2.73294,-2.698348 0,-2.698347 2.73294,-2.698347 h 2.66375 v -1.124312 q 0,-0.795667 -0.79567,-0.795667 h -3.66698 v -1.089717 l 0.89945,-0.674587 h 2.87132 q 2.71564,0 2.71564,2.732942 v 6.348036 z M 107.966,44.577945 q 0,0.795667 0.79566,0.795667 h 2.57727 v -2.058355 h -2.57727 q -0.79566,0 -0.79566,0.778369 z m 0.5881,-8.319905 2.33511,-2.646456 1.12431,1.089717 -2.49078,2.490782 z m 7.26479,7.87018 v -9.790158 h 2.02376 v 9.997724 q 0,1.124311 1.14161,1.210797 v 1.747007 q -3.16537,0 -3.16537,-3.16537 z m 5.05075,0 v -9.790158 h 2.02376 v 9.997724 q 0,1.124311 1.14161,1.210797 v 1.747007 q -3.16537,0 -3.16537,-3.16537 z m 7.36856,3.009696 q -2.73294,0 -2.73294,-2.698348 0,-2.698347 2.73294,-2.698347 h 2.66376 v -1.124312 q 0,-0.795667 -0.79567,-0.795667 h -3.66698 v -1.089717 l 0.89945,-0.674587 h 2.87131 q 2.71565,0 2.71565,2.732942 v 6.348036 z m -0.70918,-2.559971 q 0,0.795667 0.79567,0.795667 h 2.57727 v -2.058355 h -2.57727 q -0.79567,0 -0.79567,0.778369 z m 7.85291,-0.449725 v -9.790158 h 2.02376 v 9.997724 q 0,1.124311 1.1416,1.210797 v 1.747007 q -3.16536,0 -3.16536,-3.16537 z m 5.11993,3.009696 V 34.338062 h 2.02377 v 7.57613 l 3.5286,-3.857254 h 1.98917 l 0.17297,0.345942 -3.18267,3.442123 3.42483,4.946971 -0.17297,0.345942 h -1.98917 l -2.59456,-3.839956 -1.1762,1.262688 v 2.577268 z m 9.56531,-2.732942 V 40.78988 q 0,-2.732942 2.73294,-2.732942 h 2.4216 q 2.71564,0 2.71564,2.732942 v 3.615094 q 0,2.732942 -2.71564,2.732942 h -2.4216 q -2.73294,0 -2.73294,-2.732942 z m 2.02376,0.172971 q 0,0.795667 0.79567,0.795667 h 2.23132 q 0.79567,0 0.79567,-0.795667 v -3.961036 q 0,-0.795667 -0.79567,-0.795667 h -2.23132 q -0.79567,0 -0.79567,0.795667 z m 7.78371,2.559971 v -1.539442 l 4.60103,-5.777232 h -4.42805 v -1.764304 h 7.00532 v 1.539442 l -4.58373,5.777232 h 4.7567 v 1.764304 z m 9.28854,-2.732942 V 40.78988 q 0,-2.732942 2.73294,-2.732942 h 2.42159 q 2.71565,0 2.71565,2.732942 v 3.615094 q 0,2.732942 -2.71565,2.732942 h -2.42159 q -2.73294,0 -2.73294,-2.732942 z m 2.02376,0.172971 q 0,0.795667 0.79567,0.795667 h 2.23132 q 0.79567,0 0.79567,-0.795667 v -3.961036 q 0,-0.795667 -0.79567,-0.795667 h -2.23132 q -0.79567,0 -0.79567,0.795667 z m 0.5881,-8.319905 2.33511,-2.646456 1.12431,1.089717 -2.49078,2.490782 z"
         id="path4" /></g><g
       style="opacity:1;fill:none;fill-rule:nonzero;stroke:none;stroke-width:0;stroke-linecap:butt;stroke-linejoin:miter;stroke-miterlimit:10;stroke-dasharray:none"
       transform="matrix(0.82157226,-0.32011168,0.41307791,1.0601717,-36.044954,-240.0298)"
       id="g1">
	<path
   d="m -42.210637,240.15152 h -3.989772 v -2.30242 c 0.939144,-0.48149 1.53834,-1.20257 1.53834,-2.00778 v -9.42638 c 0,-1.44603 -1.928485,-2.62263 -4.298584,-2.62263 -2.370099,0 -4.298584,1.1766 -4.298584,2.62263 v 9.42638 c 0,0.80521 0.599196,1.52629 1.53834,2.00778 v 2.3028 h -3.989772 c -2.082256,0 -3.775638,1.03355 -3.775638,2.30358 v 4.63275 c 0,4.65717 3.804231,8.96775 10.176176,11.53146 0.02097,0.009 0.04511,0.0124 0.06735,0.019 0.02097,0.007 0.04003,0.0128 0.06227,0.0178 0.07117,0.0159 0.144875,0.0267 0.219854,0.0267 0.07498,0 0.148687,-0.0109 0.219854,-0.0271 0.02224,-0.005 0.0413,-0.0112 0.06227,-0.0178 0.02224,-0.007 0.04639,-0.0105 0.06735,-0.0194 6.371953,-2.56371 10.176184,-6.8743 10.176184,-11.53147 v -4.63235 c 0,-1.27042 -1.694017,-2.30358 -3.775638,-2.30358 z m -9.77777,-13.73658 c 0,-1.01881 1.358518,-1.84728 3.027754,-1.84728 1.669236,0 3.027754,0.82847 3.027754,1.84728 v 9.42638 c 0,0.6261 -0.515957,1.17854 -1.298789,1.51272 -0.06163,0.0264 -0.128354,0.0473 -0.192531,0.0702 -0.08324,0.0302 -0.167114,0.0593 -0.254801,0.0845 -0.09023,0.0252 -0.182364,0.0473 -0.275771,0.0671 -0.06036,0.0132 -0.121999,0.024 -0.18427,0.0349 -0.11501,0.0194 -0.23002,0.0376 -0.347572,0.0485 -0.02033,0.002 -0.04194,0.002 -0.06291,0.004 -0.271958,0.0221 -0.547093,0.0221 -0.81905,0 -0.02161,-0.002 -0.04448,-0.002 -0.06608,-0.004 -0.116916,-0.0109 -0.231926,-0.0291 -0.346301,-0.0485 -0.06227,-0.0109 -0.124541,-0.0221 -0.185541,-0.0353 -0.09341,-0.0198 -0.185542,-0.0415 -0.27577,-0.0671 -0.08642,-0.0248 -0.169021,-0.0535 -0.250989,-0.0833 -0.06608,-0.0237 -0.134073,-0.045 -0.197615,-0.0721 -0.782196,-0.33418 -1.297518,-0.88623 -1.297518,-1.51194 v -9.42599 z m 2.251912,12.00366 c 0.01716,0.002 0.03368,0.003 0.05083,0.005 0.236375,0.0248 0.477197,0.0403 0.725009,0.0403 0.246541,0 0.486728,-0.0155 0.721832,-0.0399 0.01906,-0.002 0.03749,-0.003 0.05655,-0.005 0.226843,-0.0256 0.446697,-0.0624 0.659561,-0.10894 0.01652,-0.004 0.03495,-0.005 0.05147,-0.008 v 2.23806 1.8124 c 0,0.50087 -0.668457,0.90871 -1.489414,0.90871 -0.820956,0 -1.489413,-0.40784 -1.489413,-0.90871 v -1.8124 -2.23806 c 0.01652,0.004 0.03495,0.005 0.05147,0.008 0.214135,0.0469 0.434624,0.0837 0.662103,0.10933 z m 10.030665,8.66924 c 0,4.14854 -3.204399,8.00128 -8.619408,10.45605 v -7.11504 c 0,-0.21439 -0.284666,-0.38768 -0.635415,-0.38768 -0.350749,0 -0.635415,0.17329 -0.635415,0.38768 v 7.11465 c -5.415009,-2.45477 -8.619408,-6.30751 -8.619408,-10.45566 v -4.63274 c 0,-0.84243 1.124049,-1.52823 2.504807,-1.52823 h 3.989772 v 1.42472 c 0,0.92887 1.238425,1.68407 2.760244,1.68407 1.522455,0 2.760244,-0.7552 2.760244,-1.68407 v -1.42472 h 3.989772 c 1.381393,0 2.504807,0.6858 2.504807,1.52823 z"
   style="opacity:1;fill:#00ffff;fill-rule:nonzero;stroke:none;stroke-width:0.496323;stroke-linecap:butt;stroke-linejoin:miter;stroke-miterlimit:10;stroke-dasharray:none"
   stroke-linecap="round"
   id="path1" />
</g></g></svg>
