<?xml version="1.0" encoding="UTF-8" standalone="no"?>
<!-- Uploaded to: SVG Repo, www.svgrepo.com, Generator: SVG Repo Mixer Tools -->

<svg
   width="200"
   height="200"
   viewBox="0 0 6 6"
   version="1.1"
   id="svg2"
   sodipodi:docname="warning.svg"
   fill="#ffffff"
   inkscape:version="1.3.2 (091e20e, 2023-11-25, custom)"
   xmlns:inkscape="http://www.inkscape.org/namespaces/inkscape"
   xmlns:sodipodi="http://sodipodi.sourceforge.net/DTD/sodipodi-0.dtd"
   xmlns="http://www.w3.org/2000/svg"
   xmlns:svg="http://www.w3.org/2000/svg">
  <defs
     id="defs2" />
  <sodipodi:namedview
     id="namedview2"
     pagecolor="#505050"
     bordercolor="#ffffff"
     borderopacity="1"
     inkscape:showpageshadow="0"
     inkscape:pageopacity="0"
     inkscape:pagecheckerboard="1"
     inkscape:deskcolor="#505050"
     inkscape:zoom="1.01625"
     inkscape:cx="400.492"
     inkscape:cy="400"
     inkscape:window-width="1920"
     inkscape:window-height="1009"
     inkscape:window-x="1912"
     inkscape:window-y="-8"
     inkscape:window-maximized="1"
     inkscape:current-layer="svg2" />
  <path
     d="m 3.49875,0.45675 a 0.43625,0.43625 0 0 0 -0.74225,0 l -2.45,4.4355 a 0.40075,0.40075 0 0 0 0,0.414 A 0.4195,0.4195 0 0 0 0.6765,5.5 H 5.57 a 0.42,0.42 0 0 0 0.371,-0.19375 0.402,0.402 0 0 0 7.5e-4,-0.414 z M 3,2 H 3.25 V 3.75 H 3 Z m 0.125,2.625 a 0.25,0.25 0 1 1 0.25,-0.25 0.2505,0.2505 0 0 1 -0.25,0.25 z"
     id="path1"
     style="stroke-width:0.25" />
  <path
     fill="none"
     d="M 0,0 H 6 V 6 H 0 Z"
     id="path2"
     style="stroke-width:0.25" />
</svg>
